<svg width="69" height="69" viewBox="0 0 69 69" fill="none" xmlns="http://www.w3.org/2000/svg">
<g id="simple-icons:googlescholar" clip-path="url(#clip0_41_5621)">
<path id="Vector" d="M15.0708 39.5859L0 27.3125L34.5 0L69 27.3125L53.9292 39.5859C50.4505 32.3409 43.0617 27.3125 34.5 27.3125C25.9411 27.3125 18.5495 32.338 15.0708 39.5859ZM34.5 28.75C29.1625 28.75 24.0436 30.8703 20.2695 34.6445C16.4953 38.4186 14.375 43.5375 14.375 48.875C14.375 54.2125 16.4953 59.3314 20.2695 63.1055C24.0436 66.8797 29.1625 69 34.5 69C39.8375 69 44.9564 66.8797 48.7305 63.1055C52.5047 59.3314 54.625 54.2125 54.625 48.875C54.625 43.5375 52.5047 38.4186 48.7305 34.6445C44.9564 30.8703 39.8375 28.75 34.5 28.75Z" fill="white"/>
</g>
<defs>
<clipPath id="clip0_41_5621">
<rect width="69" height="69" fill="white"/>
</clipPath>
</defs>
</svg>
