<svg width="69" height="69" viewBox="0 0 69 69" fill="none" xmlns="http://www.w3.org/2000/svg">
<g id="fontisto:world">
<g id="Group 243">
<path id="Vector" d="M34.5332 7H34.4668C19.2983 7 7 19.3131 7 34.5C7 49.6869 19.2983 62 34.4668 62H34.5332C49.7017 62 62 49.6869 62 34.5C62 19.3131 49.7017 7 34.5332 7ZM34.5332 59.8H34.4668C20.5114 59.8 9.19735 48.4723 9.19735 34.5C9.19735 20.5277 20.5114 9.2 34.4668 9.2H34.5332C48.4886 9.2 59.8027 20.5277 59.8027 34.5C59.8027 48.4723 48.4886 59.8 34.5332 59.8Z" fill="#414141"/>
<path id="Vector_2" d="M43.2878 23.367C41.0218 23.9399 38.3987 24.3112 35.7024 24.3983L35.6428 24.4006V33.4045H44.5696C44.5177 29.9145 44.0654 26.442 43.2214 23.0554L43.2878 23.367ZM35.6291 11.5604V22.3885C38.1059 22.3151 40.568 21.9795 42.9742 21.387L42.7339 21.4374C41.0034 15.9604 38.3094 12.367 35.6291 11.5604ZM26.2675 21.4237C28.387 21.9554 30.8453 22.3037 33.3677 22.3862L33.4249 22.3885V11.5352C30.7446 12.3143 28.0094 15.9122 26.2675 21.4237ZM50.9853 18.2887C47.9963 15.23 44.2146 13.0666 40.065 12.0416L39.9071 12.0095C42.1146 14.5319 43.729 17.5179 44.6314 20.7477L44.668 20.9058C46.921 20.226 49.099 19.3184 51.1685 18.197L50.9853 18.2887ZM46.5884 33.4045H57.5888C57.3654 28.4182 55.5227 23.6411 52.3404 19.7989L52.3701 19.8379C50.333 20.9883 47.9686 22.0104 45.492 22.7827L45.2288 22.8537C46.0367 26.0047 46.5289 29.6324 46.5861 33.3679V33.4068L46.5884 33.4045ZM24.4295 33.4045H33.4341V24.4006C30.7462 24.3241 28.0746 23.9553 25.4664 23.3006L25.7227 23.3556C24.9039 26.632 24.4699 29.9929 24.4295 33.3702V33.4045ZM44.5696 35.5977H35.6291V44.581C38.3849 44.6612 41.0149 45.0324 43.5418 45.6672L43.2901 45.6145C44.05 42.6239 44.5123 39.1795 44.5696 35.6366V35.5977ZM25.725 45.6329C28.0139 45.0485 30.6599 44.6704 33.3814 44.5902L33.4363 44.5879V35.6045H24.4295C24.4822 39.1887 24.9514 42.6377 25.7891 45.9399L25.7227 45.6329H25.725ZM33.4386 57.4533V46.5977C30.8522 46.6824 28.3916 47.0285 26.0226 47.6129L26.2675 47.5624C28.0116 53.0762 30.7446 56.681 33.4386 57.4533ZM39.9071 56.9904C44.1182 55.9725 47.9601 53.7932 50.9968 50.6997L51.0014 50.6952C49.0682 49.6474 47.0365 48.793 44.9358 48.1445L44.6886 48.0781C43.7849 51.383 42.1429 54.4392 39.8865 57.0156L39.9071 56.9904ZM29.0783 12.037C24.9026 13.0605 21.0948 15.2294 18.0824 18.3002L18.0778 18.3047C19.8517 19.2764 21.9186 20.1564 24.0793 20.8302L24.3242 20.8966C25.2277 17.6137 26.8599 14.5774 29.0989 12.0141L29.076 12.0393L29.0783 12.037ZM45.2288 46.1485C47.9731 46.9849 50.3445 48.0093 52.5716 49.2583L52.3861 49.162C55.5434 45.3435 57.3736 40.6 57.6003 35.6481L57.6026 35.5954H46.6021C46.5355 39.267 46.0509 42.9191 45.1578 46.4808L45.2288 46.1485ZM35.6291 46.5977V57.4372C38.3094 56.6306 41.0034 53.0372 42.7339 47.5487C40.4231 46.984 38.0593 46.6652 35.6817 46.5977H35.6291ZM23.784 22.8377C21.2533 22.0757 18.814 21.0374 16.5099 19.7416L16.6907 19.8356C13.5335 23.6541 11.7033 28.3976 11.4766 33.3495L11.4743 33.4022H22.4199C22.4725 29.6279 22.9669 25.9933 23.8527 22.5145L23.784 22.8377ZM22.4084 35.5977H11.4629C11.7078 40.7906 13.6373 45.4885 16.7113 49.2033L16.6816 49.1643C18.7027 48.0208 21.0534 47.0033 23.5117 46.2333L23.7726 46.1622C22.92 42.7186 22.4631 39.1887 22.4107 35.6412L22.4084 35.5977ZM18.0664 50.6952C21.04 53.7366 24.7969 55.8941 28.9203 56.9285L29.0783 56.9629C26.8774 54.4458 25.2643 51.4694 24.3563 48.2499L24.3174 48.0895C22.0869 48.775 19.9294 49.6792 17.8764 50.7891L18.0664 50.6952Z" fill="#414141"/>
</g>
</g>
</svg>
