<svg width="69" height="69" viewBox="0 0 69 69" fill="none" xmlns="http://www.w3.org/2000/svg">
<g id="ion:trophy-sharp" clip-path="url(#clip0_41_5892)">
<path id="Vector" d="M56.6632 7.39286V0H12.3214V7.39286H0V13.2455C0 18.1741 1.46317 22.9163 4.12152 26.585C6.17458 29.4189 9.38431 31.375 12.2706 32.316C13.1085 36.8272 15.3818 41.1151 20.0008 44.6113C23.3892 47.1772 27.4629 49.0578 31.1116 49.8263V62.2232H19.7143V69H49.2857V62.2232H37.8884V49.8263C41.5371 49.0562 45.6093 47.1772 48.9992 44.6113C53.6198 41.1151 55.8915 36.8272 56.7294 32.316C59.6157 31.375 62.8254 29.4189 64.8785 26.585C67.5368 22.9163 69 18.1741 69 13.2455V7.39286H56.6632ZM9.61071 22.6098C7.9658 20.3488 6.96623 17.3116 6.80143 14.1696H12.3214V24.5458C11.7146 24.3702 10.3315 23.6032 9.61071 22.6098ZM59.3893 22.6098C58.6808 23.6279 57.6027 24.5474 56.6786 24.5474C56.6786 21.0974 56.6786 17.4179 56.6709 14.1696H62.2001C62.0338 17.3116 60.9911 20.315 59.3893 22.6098Z" fill="white"/>
</g>
<defs>
<clipPath id="clip0_41_5892">
<rect width="69" height="69" fill="white"/>
</clipPath>
</defs>
</svg>
