<svg width="69" height="69" viewBox="0 0 69 69" fill="none" xmlns="http://www.w3.org/2000/svg">
<g id="fontisto:world" clip-path="url(#clip0_41_5473)">
<path id="Vector" d="M34.5004 0H34.417C15.3644 0 -0.0830078 15.4474 -0.0830078 34.5C-0.0830078 53.5526 15.3644 69 34.417 69H34.5004C53.553 69 69.0004 53.5526 69.0004 34.5C69.0004 15.4474 53.553 0 34.5004 0ZM34.5004 66.24H34.417C16.8881 66.24 2.67699 52.0289 2.67699 34.5C2.67699 16.9711 16.8881 2.76 34.417 2.76H34.5004C52.0292 2.76 66.2404 16.9711 66.2404 34.5C66.2404 52.0289 52.0292 66.24 34.5004 66.24Z" fill="white"/>
<path id="Vector_2" d="M45.4965 20.5331C42.6502 21.2518 39.3555 21.7176 35.9687 21.8268L35.894 21.8297V33.1256H47.1065C47.0414 28.7472 46.4732 24.3907 45.4131 20.1421L45.4965 20.5331ZM35.8767 5.72108V19.3055C38.9877 19.2134 42.0803 18.7923 45.1026 18.0491L44.8007 18.1123C42.6272 11.2411 39.2433 6.73308 35.8767 5.72108ZM24.118 18.0951C26.7802 18.7621 29.868 19.1991 33.0362 19.3026L33.1081 19.3055V5.68945C29.7415 6.66695 26.3058 11.1807 24.118 18.0951ZM55.1651 14.1621C51.4107 10.3248 46.6606 7.61075 41.4485 6.32483L41.2501 6.28458C44.0229 9.44904 46.0507 13.1951 47.1841 17.247L47.2301 17.4453C50.06 16.5925 52.7957 15.4539 55.3951 14.0471L55.1651 14.1621ZM49.6422 33.1256H63.4595C63.1789 26.87 60.8642 20.8769 56.8671 16.0567L56.9045 16.1056C54.3457 17.5488 51.3758 18.8311 48.2651 19.8L47.9345 19.8891C48.9493 23.8422 49.5675 28.3933 49.6393 33.0796V33.1285L49.6422 33.1256ZM21.8093 33.1256H33.1196V21.8297C29.7435 21.7338 26.3878 21.2711 23.1117 20.4497L23.4337 20.5187C22.4052 24.6291 21.86 28.8456 21.8093 33.0825V33.1256ZM47.1065 35.877H35.8767V47.147C39.3382 47.2476 42.6416 47.7133 45.8156 48.5097L45.4993 48.4436C46.4538 44.6917 47.0346 40.3706 47.1065 35.9258V35.877ZM23.4366 48.4666C26.3116 47.7335 29.6351 47.2591 33.0535 47.1585L33.1225 47.1556V35.8856H21.8093C21.8755 40.3821 22.4648 44.709 23.5171 48.8518L23.4337 48.4666H23.4366ZM33.1253 63.2958V49.677C29.8766 49.7833 26.786 50.2175 23.8103 50.9506L24.118 50.8873C26.3087 57.8046 29.7415 62.327 33.1253 63.2958ZM41.2501 62.7151C46.5396 61.4381 51.3652 58.704 55.1795 54.8232L55.1852 54.8175C52.757 53.503 50.2051 52.4311 47.5665 51.6176L47.256 51.5342C46.1209 55.6804 44.0584 59.5145 41.2242 62.7467L41.2501 62.7151ZM27.6485 6.31908C22.4036 7.60308 17.6207 10.3241 13.837 14.1765L13.8312 14.1822C16.0593 15.4012 18.6555 16.5052 21.3695 17.3505L21.6771 17.4338C22.8119 13.3153 24.862 9.50608 27.6743 6.29033L27.6456 6.32195L27.6485 6.31908ZM47.9345 49.1135C51.3816 50.1628 54.3601 51.448 57.1575 53.0148L56.9246 52.8941C60.8902 48.1036 63.1891 42.1526 63.4738 35.9402L63.4767 35.8741H49.6595C49.5758 40.4803 48.9671 45.062 47.8453 49.5303L47.9345 49.1135ZM35.8767 49.677V63.2757C39.2433 62.2637 42.6272 57.7557 44.8007 50.8701C41.8983 50.1617 38.9292 49.7617 35.9428 49.677H35.8767ZM20.9986 19.869C17.8199 18.913 14.7559 17.6105 11.8618 15.9848L12.089 16.1027C8.1233 20.8932 5.82445 26.8442 5.53971 33.0566L5.53684 33.1227H19.2851C19.3512 28.3876 19.9722 23.8278 21.0848 19.4636L20.9986 19.869ZM19.2707 35.877H5.52246C5.83009 42.3917 8.25371 48.2855 12.1148 52.9458L12.0775 52.897C14.6161 51.4623 17.5687 50.1858 20.6565 49.2198L20.9842 49.1307C19.9133 44.8105 19.3394 40.3821 19.2736 35.9316L19.2707 35.877ZM13.8168 54.8175C17.5519 58.633 22.2707 61.3397 27.4501 62.6375L27.6485 62.6806C24.884 59.5228 22.8579 55.7887 21.7173 51.7498L21.6685 51.5486C18.8668 52.4085 16.1569 53.5429 13.5782 54.9353L13.8168 54.8175Z" fill="white"/>
</g>
<defs>
<clipPath id="clip0_41_5473">
<rect width="69" height="69" fill="white"/>
</clipPath>
</defs>
</svg>
