<svg width="69" height="69" viewBox="0 0 69 69" fill="none" xmlns="http://www.w3.org/2000/svg">
<g id="eva:people-fill">
<g id="evaPeopleFill0">
<g id="evaPeopleFill1">
<path id="evaPeopleFill2" d="M25.3889 31.4444C27.8062 31.4444 30.1693 30.7276 32.1792 29.3846C34.1891 28.0416 35.7557 26.1328 36.6807 23.8995C37.6058 21.6662 37.8479 19.2087 37.3763 16.8378C36.9047 14.4669 35.7406 12.2891 34.0313 10.5798C32.322 8.8705 30.1442 7.70645 27.7733 7.23485C25.4024 6.76325 22.945 7.0053 20.7116 7.93037C18.4783 8.85544 16.5695 10.422 15.2265 12.4319C13.8835 14.4419 13.1667 16.8049 13.1667 19.2222C13.1667 22.4638 14.4544 25.5725 16.7465 27.8646C19.0386 30.1568 22.1474 31.4444 25.3889 31.4444ZM49.8333 37.5556C51.6463 37.5556 53.4186 37.0179 54.9261 36.0107C56.4335 35.0035 57.6084 33.5718 58.3022 31.8968C58.996 30.2218 59.1776 28.3787 58.8239 26.6006C58.4702 24.8224 57.5971 23.1891 56.3151 21.9071C55.0332 20.6251 53.3998 19.7521 51.6217 19.3984C49.8435 19.0447 48.0004 19.2262 46.3254 19.92C44.6504 20.6138 43.2188 21.7887 42.2115 23.2962C41.2043 24.8036 40.6667 26.5759 40.6667 28.3889C40.6667 30.82 41.6324 33.1516 43.3515 34.8707C45.0706 36.5898 47.4022 37.5556 49.8333 37.5556ZM62.0555 58.9444C62.8659 58.9444 63.6431 58.6225 64.2162 58.0495C64.7892 57.4765 65.1111 56.6993 65.1111 55.8889C65.1087 53.0332 64.3059 50.2353 62.7938 47.8127C61.2817 45.3901 59.121 43.4398 56.5566 42.1831C53.9923 40.9264 51.127 40.4135 48.286 40.7028C45.4449 40.992 42.7418 42.0717 40.4833 43.8194C37.4904 40.8383 33.6818 38.8102 29.5378 37.9907C25.3937 37.1713 21.0999 37.5974 17.1976 39.2151C13.2954 40.8329 9.9596 43.5699 7.61088 47.0811C5.26216 50.5922 4.00571 54.7202 4 58.9444C4 59.7548 4.32192 60.532 4.89495 61.1051C5.46798 61.6781 6.24517 62 7.05556 62H43.7222C44.5326 62 45.3098 61.6781 45.8828 61.1051C46.4558 60.532 46.7778 59.7548 46.7778 58.9444" fill="#414141"/>
</g>
</g>
</g>
</svg>
