<svg width="69" height="69" viewBox="0 0 69 69" fill="none" xmlns="http://www.w3.org/2000/svg">
<g id="ion:trophy-sharp">
<path id="Vector" d="M52.1663 12.8929V7H16.8214V12.8929H7V17.558C7 21.4866 8.16629 25.2666 10.2853 28.191C11.9218 30.4499 14.4802 32.009 16.7809 32.7592C17.4488 36.355 19.2608 39.7729 22.9426 42.5597C25.6435 44.605 28.8907 46.104 31.7991 46.7166V56.5982H22.7143V62H46.2857V56.5982H37.2009V46.7166C40.1093 46.1028 43.3552 44.605 46.0574 42.5597C49.7404 39.7729 51.5512 36.355 52.2191 32.7592C54.5198 32.009 57.0782 30.4499 58.7147 28.191C60.8337 25.2666 62 21.4866 62 17.558V12.8929H52.1663ZM14.6607 25.0223C13.3496 23.2201 12.5528 20.7991 12.4214 18.2946H16.8214V26.5655C16.3377 26.4256 15.2353 25.8142 14.6607 25.0223ZM54.3393 25.0223C53.7746 25.8338 52.9152 26.5667 52.1786 26.5667C52.1786 23.8167 52.1786 20.8838 52.1724 18.2946H56.5798C56.4472 20.7991 55.6161 23.1931 54.3393 25.0223Z" fill="#414141"/>
</g>
</svg>
