<svg width="69" height="69" viewBox="0 0 69 69" fill="none" xmlns="http://www.w3.org/2000/svg">
<g id="eva:people-fill">
<g id="evaPeopleFill0">
<g id="evaPeopleFill1">
<path id="evaPeopleFill2" d="M24.15 30.6C26.8794 30.6 29.5475 29.7906 31.8169 28.2743C34.0863 26.7579 35.855 24.6027 36.8995 22.081C37.944 19.5594 38.2173 16.7847 37.6848 14.1078C37.1524 11.4308 35.838 8.9719 33.9081 7.04193C31.9781 5.11197 29.5192 3.79765 26.8422 3.26517C24.1653 2.73269 21.3906 3.00598 18.869 4.05047C16.3473 5.09496 14.1921 6.86374 12.6757 9.13314C11.1594 11.4025 10.35 14.0706 10.35 16.8C10.35 20.46 11.8039 23.9701 14.3919 26.5581C16.9799 29.1461 20.49 30.6 24.15 30.6ZM51.75 37.5C53.797 37.5 55.7981 36.893 57.5001 35.7557C59.2022 34.6184 60.5288 33.002 61.3122 31.1108C62.0955 29.2196 62.3005 27.1385 61.9011 25.1308C61.5018 23.1231 60.516 21.2789 59.0686 19.8315C57.6211 18.384 55.7769 17.3982 53.7692 16.9989C51.7615 16.5995 49.6804 16.8045 47.7892 17.5879C45.898 18.3712 44.2816 19.6978 43.1443 21.3999C42.007 23.1019 41.4 25.103 41.4 27.15C41.4 29.895 42.4904 32.5276 44.4314 34.4686C46.3724 36.4096 49.005 37.5 51.75 37.5ZM65.55 61.65C66.465 61.65 67.3425 61.2865 67.9895 60.6395C68.6365 59.9925 69 59.115 69 58.2C68.9972 54.9756 68.0908 51.8166 66.3836 49.0812C64.6763 46.3459 62.2366 44.1439 59.3412 42.7249C56.4458 41.306 53.2107 40.7269 50.0029 41.0535C46.7951 41.3801 43.743 42.5992 41.193 44.5725C37.8138 41.2065 33.5135 38.9166 28.8345 37.9914C24.1555 37.0662 19.3073 37.5472 14.9013 39.3738C10.4954 41.2004 6.72893 44.2908 4.07701 48.2552C1.42509 52.2195 0.00645217 56.8804 0 61.65C0 62.565 0.363481 63.4425 1.01048 64.0895C1.65748 64.7365 2.535 65.1 3.45 65.1H44.85C45.765 65.1 46.6425 64.7365 47.2895 64.0895C47.9365 63.4425 48.3 62.565 48.3 61.65" fill="white"/>
</g>
</g>
</g>
</svg>
