<svg width="69" height="69" viewBox="0 0 69 69" fill="none" xmlns="http://www.w3.org/2000/svg">
<g id="simple-icons:googlescholar">
<path id="Vector" d="M19.0129 38.554L7 28.7708L34.5 7L62 28.7708L49.9871 38.554C47.2142 32.779 41.3246 28.7708 34.5 28.7708C27.6777 28.7708 21.7858 32.7767 19.0129 38.554ZM34.5 29.9167C30.2455 29.9167 26.1652 31.6068 23.1568 34.6152C20.1484 37.6236 18.4583 41.7038 18.4583 45.9583C18.4583 50.2128 20.1484 54.2931 23.1568 57.3015C26.1652 60.3099 30.2455 62 34.5 62C38.7545 62 42.8348 60.3099 45.8432 57.3015C48.8516 54.2931 50.5417 50.2128 50.5417 45.9583C50.5417 41.7038 48.8516 37.6236 45.8432 34.6152C42.8348 31.6068 38.7545 29.9167 34.5 29.9167Z" fill="#414141"/>
</g>
</svg>
