<svg width="55" height="55" viewBox="0 0 55 55" fill="none" xmlns="http://www.w3.org/2000/svg">
<g id="streamline:interface-content-book-edit-pencil-content-write-notebook-book-edit-composition-creation" clip-path="url(#clip0_19_4198)">
<path id="Vector" d="M31.4282 53.0358H5.89244C4.85052 53.0358 3.85127 52.6219 3.11452 51.8851C2.37777 51.1484 1.96387 50.1491 1.96387 49.1072V5.89293C1.96387 4.851 2.37777 3.85176 3.11452 3.11501C3.85127 2.37826 4.85052 1.96436 5.89244 1.96436H35.3567M41.2496 37.3215H53.0353M13.7496 1.96436V53.0358M23.571 15.7144H31.4282M41.2496 13.7501L47.1424 1.96436L53.0353 13.7501V47.1429C53.0353 48.7058 52.4144 50.2047 51.3093 51.3098C50.2042 52.4149 48.7053 53.0358 47.1424 53.0358C45.5796 53.0358 44.0807 52.4149 42.9756 51.3098C41.8704 50.2047 41.2496 48.7058 41.2496 47.1429V13.7501Z" stroke="#0069C7" stroke-width="5" stroke-linecap="round" stroke-linejoin="round"/>
</g>
<defs>
<clipPath id="clip0_19_4198">
<rect width="55" height="55" fill="white"/>
</clipPath>
</defs>
</svg>
