<svg width="55" height="55" viewBox="0 0 55 55" fill="none" xmlns="http://www.w3.org/2000/svg">
<path id="Vector" d="M33.5225 33.5225L11 44L21.4775 21.4775L44 11M27.5 0C23.8886 0 20.3127 0.711309 16.9762 2.09331C13.6398 3.47532 10.6082 5.50095 8.05456 8.05456C2.89731 13.2118 0 20.2065 0 27.5C0 34.7935 2.89731 41.7882 8.05456 46.9454C10.6082 49.499 13.6398 51.5247 16.9762 52.9067C20.3127 54.2887 23.8886 55 27.5 55C34.7935 55 41.7882 52.1027 46.9454 46.9454C52.1027 41.7882 55 34.7935 55 27.5C55 23.8886 54.2887 20.3127 52.9067 16.9762C51.5247 13.6398 49.499 10.6082 46.9454 8.05456C44.3918 5.50095 41.3602 3.47532 38.0238 2.09331C34.6873 0.711309 31.1114 0 27.5 0ZM27.5 24.475C26.6977 24.475 25.9283 24.7937 25.361 25.361C24.7937 25.9283 24.475 26.6977 24.475 27.5C24.475 28.3023 24.7937 29.0717 25.361 29.639C25.9283 30.2063 26.6977 30.525 27.5 30.525C28.3023 30.525 29.0717 30.2063 29.639 29.639C30.2063 29.0717 30.525 28.3023 30.525 27.5C30.525 26.6977 30.2063 25.9283 29.639 25.361C29.0717 24.7937 28.3023 24.475 27.5 24.475Z" fill="#0069C7"/>
</svg>
