<svg width="56" height="56" viewBox="0 0 56 56" fill="none" xmlns="http://www.w3.org/2000/svg">
<g id="simple-icons:googlescholar" clip-path="url(#clip0_19_4194)">
<path id="Vector" d="M12.5129 32.054L0.5 22.2708L28 0.5L55.5 22.2708L43.4871 32.054C40.7142 26.279 34.8246 22.2708 28 22.2708C21.1777 22.2708 15.2858 26.2767 12.5129 32.054ZM28 23.4167C23.7455 23.4167 19.6652 25.1068 16.6568 28.1152C13.6484 31.1236 11.9583 35.2038 11.9583 39.4583C11.9583 43.7128 13.6484 47.7931 16.6568 50.8015C19.6652 53.8099 23.7455 55.5 28 55.5C32.2545 55.5 36.3348 53.8099 39.3432 50.8015C42.3516 47.7931 44.0417 43.7128 44.0417 39.4583C44.0417 35.2038 42.3516 31.1236 39.3432 28.1152C36.3348 25.1068 32.2545 23.4167 28 23.4167Z" fill="#0069C7"/>
</g>
<defs>
<clipPath id="clip0_19_4194">
<rect width="55" height="55" fill="white" transform="translate(0.5 0.5)"/>
</clipPath>
</defs>
</svg>
