<svg width="57" height="57" viewBox="0 0 57 57" fill="none" xmlns="http://www.w3.org/2000/svg">
<g id="bi:globe" clip-path="url(#clip0_19_4188)">
<path id="Vector" d="M0 28.5C0 20.9413 3.00267 13.6922 8.34746 8.34746C13.6922 3.00267 20.9413 0 28.5 0C36.0587 0 43.3078 3.00267 48.6525 8.34746C53.9973 13.6922 57 20.9413 57 28.5C57 36.0587 53.9973 43.3078 48.6525 48.6525C43.3078 53.9973 36.0587 57 28.5 57C20.9413 57 13.6922 53.9973 8.34746 48.6525C3.00267 43.3078 0 36.0587 0 28.5ZM26.7188 3.83681C24.3319 4.56356 21.9628 6.75806 19.9963 10.4452C19.3484 11.6711 18.7912 12.9427 18.3291 14.25H26.7188V3.83681ZM14.5706 14.25C15.1644 12.3577 15.9275 10.5227 16.8506 8.76731C17.4666 7.60257 18.178 6.49084 18.9774 5.4435C14.5635 7.27401 10.7659 10.3299 8.03344 14.25H14.5706ZM12.4972 26.7188C12.6041 23.5944 12.9889 20.5984 13.6087 17.8125H5.96362C4.63523 20.6092 3.84256 23.6301 3.62663 26.7188H12.4972ZM17.2674 17.8125C16.5667 20.733 16.1633 23.717 16.0633 26.7188H26.7188V17.8125H17.2674ZM30.2812 17.8125V26.7188H40.9331C40.8344 23.7171 40.4322 20.7331 39.7326 17.8125H30.2812ZM16.0669 30.2812C16.1657 33.2829 16.5679 36.2668 17.2674 39.1875H26.7188V30.2812H16.0669ZM30.2812 30.2812V39.1875H39.7326C40.3988 36.4622 40.8227 33.459 40.9367 30.2812H30.2812ZM18.3291 42.75C18.8207 44.1251 19.38 45.4005 19.9963 46.5547C21.9628 50.2419 24.3354 52.4329 26.7188 53.1632V42.75H18.3291ZM18.9774 51.5565C18.1779 50.5092 17.4666 49.3975 16.8506 48.2327C15.9275 46.4773 15.1644 44.6423 14.5706 42.75H8.03344C10.7657 46.6702 14.5634 49.7262 18.9774 51.5565ZM13.6087 39.1875C12.9645 36.2594 12.5924 33.2779 12.4972 30.2812H3.62663C3.8475 33.4519 4.66331 36.4551 5.96362 39.1875H13.6087ZM38.0226 51.5565C42.4366 49.7262 46.2342 46.6702 48.9666 42.75H42.4294C41.8355 44.6423 41.0725 46.4773 40.1494 48.2327C39.5336 49.3975 38.8222 50.5093 38.0226 51.5565ZM30.2812 42.75V53.1632C32.6681 52.4364 35.0372 50.2419 37.0037 46.5547C37.62 45.4005 38.1793 44.1251 38.6709 42.75H30.2812ZM43.3913 39.1875H51.0364C52.3367 36.4551 53.1525 33.4519 53.3734 30.2812H44.5028C44.4076 33.2779 44.0355 36.2594 43.3913 39.1875ZM53.3734 26.7188C53.1574 23.6301 52.3647 20.6093 51.0364 17.8125H43.3913C44.0111 20.5984 44.3959 23.5944 44.5028 26.7188H53.3734ZM40.1494 8.76731C41.0293 10.4203 41.7952 12.2586 42.4294 14.25H48.9666C46.2342 10.3298 42.4366 7.27384 38.0226 5.4435C38.7992 6.45525 39.5117 7.57387 40.1494 8.76731ZM38.6709 14.25C38.2089 12.9427 37.6516 11.6711 37.0037 10.4452C35.0372 6.75806 32.6681 4.56712 30.2812 3.83681V14.25H38.6709Z" fill="#0069C7"/>
</g>
<defs>
<clipPath id="clip0_19_4188">
<rect width="57" height="57" fill="red"/>
</clipPath>
</defs>
</svg>
