<svg width="56" height="56" viewBox="0 0 56 56" fill="none" xmlns="http://www.w3.org/2000/svg">
<g id="game-icons:teacher">
<path id="Vector" d="M13.498 4.90405V8.97996C15.1332 10.1111 16.1838 12.2388 16.1838 14.5723C16.1838 16.0451 15.7648 17.4351 15.0454 18.5453C15.4176 18.6904 15.8087 18.8515 16.1357 18.9935L29.279 16.5461L29.9147 22.4373L17.9105 24.9316C17.8179 26.6784 17.6473 28.3972 17.3424 30.4709H53.4594V4.90405H13.498ZM10.8127 10.0603C9.03005 10.0603 7.375 11.9667 7.375 14.5725C7.375 17.1782 9.03005 19.0844 10.8127 19.0844C12.5954 19.0844 14.2504 17.1782 14.2504 14.5725C14.2504 11.9667 12.5954 10.0603 10.8127 10.0603ZM27.5808 18.829L15.9157 21.0011C14.386 20.3993 15.3833 20.6751 13.6094 20.0862C12.8064 20.6737 11.8552 21.0178 10.8127 21.0178C9.88889 21.0178 9.03703 20.7467 8.29604 20.2766C7.37328 20.6594 6.3995 21.1456 5.53143 21.6359C4.1358 22.4241 2.98316 23.055 2.54102 23.3582V37.3459H4.68988V25.4218H6.62305V53.674H9.84613V35.5195H11.7793V53.674H14.5727V35.2146L14.5892 35.1261C15.6113 29.6863 15.9415 26.8134 16.0352 23.3467L27.8044 20.9011L27.5808 18.829ZM17.0371 32.4045C16.9348 33.0149 16.8232 33.6549 16.6991 34.3376H51.8479V32.4045H17.0371ZM22.844 37.5603C21.0613 37.5603 19.4063 39.4667 19.4063 42.0725C19.4063 44.0273 20.3376 45.5884 21.5558 46.2463C21.9424 46.0678 22.3595 45.9556 22.8105 45.9401C23.3081 45.9229 23.7751 46.0225 24.2125 46.2C25.3907 45.5177 26.2817 43.9839 26.2817 42.0725C26.2817 39.4667 24.6266 37.5603 22.844 37.5603ZM34.8752 37.5603C33.0926 37.5603 31.4375 39.4667 31.4375 42.0725C31.4375 44.0273 32.3689 45.5884 33.587 46.2463C33.9736 46.0678 34.3907 45.9556 34.8417 45.9401C35.3394 45.9229 35.8064 46.0225 36.2438 46.2C37.422 45.5177 38.3129 43.9839 38.3129 42.0725C38.3129 39.4667 36.6579 37.5603 34.8752 37.5603ZM46.9065 37.5603C45.1238 37.5603 43.4688 39.4667 43.4688 42.0725C43.4688 44.0273 44.4001 45.5884 45.6183 46.2463C46.0049 46.0678 46.422 45.9556 46.873 45.9401C47.3706 45.9229 47.8376 46.0225 48.275 46.2C49.4532 45.5177 50.3442 43.9839 50.3442 42.0725C50.3442 39.4667 48.6891 37.5603 46.9065 37.5603ZM22.8775 47.8724C22.4646 47.8867 21.9207 48.1871 21.3413 48.8161C20.7619 49.445 20.1924 50.3468 19.7166 51.261C19.2626 52.1333 18.8992 52.9969 18.6359 53.674H27.8032C27.4766 52.9827 27.0364 52.1111 26.4999 51.2344C25.9307 50.3043 25.2633 49.3934 24.6019 48.7683C23.9405 48.1432 23.3343 47.8566 22.8775 47.8724ZM34.9087 47.8724C34.4958 47.8867 33.9519 48.1871 33.3726 48.8161C32.7932 49.445 32.2236 50.3468 31.7478 51.261C31.2939 52.1333 30.9305 52.9969 30.6672 53.674H39.8345C39.5079 52.9827 39.0677 52.1111 38.5311 51.2344C37.962 50.3043 37.2946 49.3934 36.6332 48.7683C35.9718 48.1432 35.3655 47.8566 34.9087 47.8724ZM46.94 47.8724C46.5271 47.8867 45.9832 48.1871 45.4039 48.8161C44.8244 49.445 44.2549 50.3468 43.7791 51.261C43.3251 52.1333 42.9617 52.9969 42.6984 53.674H51.8657C51.5391 52.9827 51.0989 52.1111 50.5624 51.2344C49.9932 50.3043 49.3258 49.3934 48.6644 48.7683C48.003 48.1432 47.3967 47.8566 46.94 47.8724Z" fill="#0069C7"/>
</g>
</svg>
