<svg width="55" height="55" viewBox="0 0 55 55" fill="none" xmlns="http://www.w3.org/2000/svg">
<g id="ri:building-fill">
<path id="Vector" d="M48.1253 43.5417H52.7087V48.125H2.29199V43.5417H6.87533V9.16667C6.87533 8.55888 7.11677 7.97598 7.54654 7.54621C7.97631 7.11644 8.5592 6.875 9.16699 6.875H32.0837C32.6914 6.875 33.2743 7.11644 33.7041 7.54621C34.1339 7.97598 34.3753 8.55888 34.3753 9.16667V43.5417H38.9587V20.625H45.8337C46.4414 20.625 47.0243 20.8664 47.4541 21.2962C47.8839 21.726 48.1253 22.3089 48.1253 22.9167V43.5417ZM16.042 25.2083V29.7917H25.2087V25.2083H16.042ZM16.042 16.0417V20.625H25.2087V16.0417H16.042Z" fill="#0069C7"/>
</g>
</svg>
